HIERARCHY
ROOT Hips
{
  OFFSET 5.80788e-005 67.184 3.4734
  CHANNELS 6 Xposition Yposition Zposition Zrotation Xrotation Yrotation
  JOINT Chest
  {
    OFFSET 0 8.7983 -4.7612
    CHANNELS 3 Zrotation Xrotation Yrotation
    JOINT Chest2
    {
      OFFSET 0 8.0291 0.4195
      CHANNELS 3 Zrotation Xrotation Yrotation
      JOINT Chest3
      {
        OFFSET 0 9.9351 -2.2114
        CHANNELS 3 Zrotation Xrotation Yrotation
        JOINT Neck
        {
          OFFSET 0 22.3885 -0.4656
          CHANNELS 3 Zrotation Xrotation Yrotation
          JOINT Head
          {
            OFFSET -0.0001 12.643 3.4389
            CHANNELS 3 Zrotation Xrotation Yrotation
            End Site
            {
              OFFSET 0.0001 17.6655 0.5274
            }
          }
        }
        JOINT LeftCollar
        {
          OFFSET 2.2603 21.606 7.4023
          CHANNELS 3 Zrotation Xrotation Yrotation
          JOINT LeftShoulder
          {
            OFFSET 13.5163 -1.1332 -5.0146
            CHANNELS 3 Zrotation Xrotation Yrotation
            JOINT LeftElbow
            {
              OFFSET -0.0995 -28.05 -0.2431
              CHANNELS 3 Zrotation Xrotation Yrotation
              JOINT LeftWrist
              {
                OFFSET 0.0679 -23.3996 -0.1402
                CHANNELS 3 Zrotation Xrotation Yrotation
                JOINT LeftFinger1
                {
                  OFFSET 0.7932 -9.069 2.5189
                  CHANNELS 3 Zrotation Xrotation Yrotation
                  JOINT LeftFinger11
                  {
                    OFFSET -0.8272 -3.3923 0.5977
                    CHANNELS 3 Zrotation Xrotation Yrotation
                    JOINT LeftFinger12
                    {
                      OFFSET -0.5649 -2.3158 0.4082
                      CHANNELS 3 Zrotation Xrotation Yrotation
                      End Site
                      {
                        OFFSET -0.4919 -1.6479 0.2673
                      }
                    }
                  }
                }
                JOINT LeftFinger2
                {
                  OFFSET 0.9159 -9.2044 0.2193
                  CHANNELS 3 Zrotation Xrotation Yrotation
                  JOINT LeftFinger21
                  {
                    OFFSET 0.0117 -4.1944 -0.0248
                    CHANNELS 3 Zrotation Xrotation Yrotation
                    JOINT LeftFinger22
                    {
                      OFFSET 0.0071 -2.3249 -0.0142
                      CHANNELS 3 Zrotation Xrotation Yrotation
                      End Site
                      {
                        OFFSET -0.1475 -2.0882 0.0028
                      }
                    }
                  }
                }
                JOINT LeftFinger3
                {
                  OFFSET 0.6113 -8.7231 -2.0637
                  CHANNELS 3 Zrotation Xrotation Yrotation
                  JOINT LeftFinger31
                  {
                    OFFSET -0.1927 -3.8059 -0.2383
                    CHANNELS 3 Zrotation Xrotation Yrotation
                    JOINT LeftFinger32
                    {
                      OFFSET -0.1091 -2.1688 -0.1362
                      CHANNELS 3 Zrotation Xrotation Yrotation
                      End Site
                      {
                        OFFSET -0.2358 -1.9176 -0.0906
                      }
                    }
                  }
                }
                JOINT LeftFinger4
                {
                  OFFSET -0.6151 -8.0947 -3.5641
                  CHANNELS 3 Zrotation Xrotation Yrotation
                  JOINT LeftFinger41
                  {
                    OFFSET -0.4882 -2.341 -0.6462
                    CHANNELS 3 Zrotation Xrotation Yrotation
                    JOINT LeftFinger42
                    {
                      OFFSET -0.3575 -1.7167 -0.4742
                      CHANNELS 3 Zrotation Xrotation Yrotation
                      End Site
                      {
                        OFFSET -0.4187 -1.5237 -0.3496
                      }
                    }
                  }
                }
                JOINT LeftFinger0
                {
                  OFFSET -1.42 -1.8761 1.4223
                  CHANNELS 3 Zrotation Xrotation Yrotation
                  JOINT LeftFinger01
                  {
                    OFFSET -1.1471 -3.4929 2.6334
                    CHANNELS 3 Zrotation Xrotation Yrotation
                    JOINT LeftFinger02
                    {
                      OFFSET -0.823 -2.3 1.6571
                      CHANNELS 3 Zrotation Xrotation Yrotation
                      End Site
                      {
                        OFFSET -0.5822 -1.6914 1.1582
                      }
                    }
                  }
                }
              }
            }
          }
        }
        JOINT RightCollar
        {
          OFFSET -2.2603 21.606 7.4023
          CHANNELS 3 Zrotation Xrotation Yrotation
          JOINT RightShoulder
          {
            OFFSET -13.5187 -1.1334 -5.0155
            CHANNELS 3 Zrotation Xrotation Yrotation
            JOINT RightElbow
            {
              OFFSET 0.0994 -28.0499 -0.2431
              CHANNELS 3 Zrotation Xrotation Yrotation
              JOINT RightWrist
              {
                OFFSET -0.0679 -23.3996 -0.1402
                CHANNELS 3 Zrotation Xrotation Yrotation
                JOINT RightFinger1
                {
                  OFFSET -0.7932 -9.0691 2.5189
                  CHANNELS 3 Zrotation Xrotation Yrotation
                  JOINT RightFinger11
                  {
                    OFFSET 0.8272 -3.3923 0.5977
                    CHANNELS 3 Zrotation Xrotation Yrotation
                    JOINT RightFinger12
                    {
                      OFFSET 0.565 -2.3158 0.4082
                      CHANNELS 3 Zrotation Xrotation Yrotation
                      End Site
                      {
                        OFFSET 0.4919 -1.6479 0.2673
                      }
                    }
                  }
                }
                JOINT RightFinger2
                {
                  OFFSET -0.916 -9.2044 0.2193
                  CHANNELS 3 Zrotation Xrotation Yrotation
                  JOINT RightFinger21
                  {
                    OFFSET -0.0117 -4.1944 -0.0248
                    CHANNELS 3 Zrotation Xrotation Yrotation
                    JOINT RightFinger22
                    {
                      OFFSET -0.0071 -2.3249 -0.0142
                      CHANNELS 3 Zrotation Xrotation Yrotation
                      End Site
                      {
                        OFFSET 0.1475 -2.0882 0.0028
                      }
                    }
                  }
                }
                JOINT RightFinger3
                {
                  OFFSET -0.6113 -8.7231 -2.0637
                  CHANNELS 3 Zrotation Xrotation Yrotation
                  JOINT RightFinger31
                  {
                    OFFSET 0.1927 -3.8059 -0.2383
                    CHANNELS 3 Zrotation Xrotation Yrotation
                    JOINT RightFinger32
                    {
                      OFFSET 0.1091 -2.1688 -0.1362
                      CHANNELS 3 Zrotation Xrotation Yrotation
                      End Site
                      {
                        OFFSET 0.2358 -1.9176 -0.0906
                      }
                    }
                  }
                }
                JOINT RightFinger4
                {
                  OFFSET 0.6151 -8.0947 -3.564
                  CHANNELS 3 Zrotation Xrotation Yrotation
                  JOINT RightFinger41
                  {
                    OFFSET 0.4882 -2.341 -0.6462
                    CHANNELS 3 Zrotation Xrotation Yrotation
                    JOINT RightFinger42
                    {
                      OFFSET 0.3574 -1.7166 -0.4742
                      CHANNELS 3 Zrotation Xrotation Yrotation
                      End Site
                      {
                        OFFSET 0.4187 -1.5237 -0.3496
                      }
                    }
                  }
                }
                JOINT RightFinger0
                {
                  OFFSET 1.4199 -1.8761 1.4221
                  CHANNELS 3 Zrotation Xrotation Yrotation
                  JOINT RightFinger01
                  {
                    OFFSET 1.1472 -3.4929 2.6336
                    CHANNELS 3 Zrotation Xrotation Yrotation
                    JOINT RightFinger02
                    {
                      OFFSET 0.8229 -2.3 1.6571
                      CHANNELS 3 Zrotation Xrotation Yrotation
                      End Site
                      {
                        OFFSET 0.5822 -1.6914 1.1582
                      }
                    }
                  }
                }
              }
            }
          }
        }
      }
    }
  }
  JOINT RightHip
  {
    OFFSET -9.412 3.9771 -0.7758
    CHANNELS 3 Zrotation Xrotation Yrotation
    JOINT RightKnee
    {
      OFFSET -0.7531 -40.938 0
      CHANNELS 3 Zrotation Xrotation Yrotation
      JOINT RightAnkle
      {
        OFFSET 0 -40.1986 0
        CHANNELS 3 Zrotation Xrotation Yrotation
        JOINT RightToe
        {
          OFFSET 0 -4.4182 9.239
          CHANNELS 3 Zrotation Xrotation Yrotation
          End Site
          {
            OFFSET 0 0 6.1981
          }
        }
      }
    }
  }
  JOINT LeftHip
  {
    OFFSET 9.4119 3.9773 -0.7758
    CHANNELS 3 Zrotation Xrotation Yrotation
    JOINT LeftKnee
    {
      OFFSET 0.7532 -40.9383 0
      CHANNELS 3 Zrotation Xrotation Yrotation
      JOINT LeftAnkle
      {
        OFFSET 0 -40.1986 0
        CHANNELS 3 Zrotation Xrotation Yrotation
        JOINT LeftToe
        {
          OFFSET 0 -4.4182 9.239
          CHANNELS 3 Zrotation Xrotation Yrotation
          End Site
          {
            OFFSET 0 0 6.1981
          }
        }
      }
    }
  }
}
MOTION
Frames:	4
Frame Time:	0.0333333
5.80788e-005 67.184 3.4734 0 0 -0 0 0 -0 0 0 -0 0 0 -0 0 0 -0 0 0 -0 0 0 -12.5014 88.1196 14.2451 10.6914 -0.00160068 -0.00239207 0.000740045 -8.4365e-005 7.00714e-005 -9.52055e-007 9.93923e-017 -1.98785e-016 -1.59028e-015 9.93923e-017 -5.96354e-016 -1.59028e-015 -9.93923e-017 -5.96354e-016 -1.59028e-015 9.93923e-017 -1.98785e-016 -1.59028e-015 -0.0128176 0.00232552 8.52707e-005 9.93923e-017 5.96354e-016 -0 9.93923e-017 -1.98785e-016 -1.59028e-015 -0.0160551 0.00299681 0.000857156 -2.48481e-016 0 3.18055e-015 9.93923e-017 -1.98785e-016 -1.59028e-015 -0.0125865 0.0031206 0.00282719 0 1.98785e-016 -0 9.93923e-017 -1.98785e-016 -1.59028e-015 9.93923e-017 -5.96354e-016 -1.59028e-015 -9.93923e-017 -5.96354e-016 -1.59028e-015 -0.865644 0.16582 7.03859 -88.0329 10.2057 -10.5567 0.0015593 -0.00248883 -0.000788628 7.87605e-005 4.10553e-005 1.24965e-005 -3.97569e-016 -7.95139e-016 3.18055e-015 -1.98785e-016 -3.97569e-016 3.18055e-015 -1.98785e-016 0 3.18055e-015 -3.97569e-016 -7.95139e-016 3.18055e-015 0.0129473 0.00231697 -8.70038e-005 9.93923e-017 -7.95139e-016 1.59028e-015 -3.97569e-016 -7.95139e-016 3.18055e-015 0.0163314 0.00303369 -0.000872333 3.97569e-016 7.95139e-016 -3.18055e-015 -3.97569e-016 -7.95139e-016 3.18055e-015 0.0145763 0.00367772 -0.00326275 9.93923e-017 -3.97569e-016 -0 -3.97569e-016 -7.95139e-016 3.18055e-015 -1.98785e-016 -3.97569e-016 3.18055e-015 -1.98785e-016 0 3.18055e-015 3.42485 1.36937 -0.0640303 0.000136572 0.69354 0.00145564 -3.42573 -2.06297 -0.0607933 -3.19502e-024 0 -1.48106e-024 -3.42498 1.36123 0.0639712 -6.769e-005 0.712612 -0.0012277 3.42582 -2.07388 0.0612819 2.55305e-023 0 -2.31416e-026 
-0.608589 59.9157 3.60641 -3.79614e-007 14.9982 -1.43444e-007 -0.608855 -3.5709 -0.315416 -1.24106 -7.13818 -0.670878 -1.24106 -7.13819 -0.670879 1.70116e-006 -0.361931 1.27942e-006 1.33207e-006 -0.33397 1.66252e-008 2.24846 16.2019 -13.9891 37.0567 -5.17847 21.1378 -78.9931 -43.2878 -57.4065 -6.39759 11.1964 -3.3736 -9.54166e-015 4.77083e-015 -3.18055e-015 -9.54166e-015 4.77083e-015 3.18055e-015 8.15203e-007 1.52826e-006 2.73344e-006 -9.54166e-015 4.77083e-015 -3.18055e-015 -0.0128048 0.00233921 9.59371e-005 1.90833e-014 7.95139e-015 6.36111e-015 -9.54166e-015 4.77083e-015 -3.18055e-015 -0.0160237 0.00298759 0.000859879 -3.46351e-006 1.45059e-005 4.87461e-006 -9.54166e-015 4.77083e-015 -3.18055e-015 -0.0126208 0.00312408 0.00283455 6.8232e-006 1.21505e-005 7.23328e-006 -9.54166e-015 4.77083e-015 -3.18055e-015 -9.54166e-015 4.77083e-015 3.18055e-015 8.15203e-007 1.52826e-006 2.73344e-006 -3.60325 15.5812 8.62439 -36.3339 -7.29677 -16.9217 77.8049 -43.789 56.8129 8.05416 11.0845 4.06281 -3.53113e-031 -3.18055e-015 -6.36111e-015 -3.18055e-015 -7.95139e-015 -0 -1.20373e-006 3.14617e-006 1.18751e-006 -3.53113e-031 -3.18055e-015 -6.36111e-015 0.0129243 0.00231346 -8.50731e-005 3.18055e-015 -1.43125e-014 6.36111e-015 -3.53113e-031 -3.18055e-015 -6.36111e-015 0.0163063 0.00304097 -0.000882311 -9.5651e-007 1.68163e-006 4.32581e-006 -3.53113e-031 -3.18055e-015 -6.36111e-015 0.0146043 0.00368776 -0.00326669 2.65498e-006 1.7789e-006 7.63396e-007 -3.53113e-031 -3.18055e-015 -6.36111e-015 -3.18055e-015 -7.95139e-015 -0 -1.20373e-006 3.14617e-006 1.18751e-006 -7.90335 -41.8033 -16.011 -5.80862 53.976 4.31294 12.5748 -26.2796 -2.34301 -8.94531e-016 -9.03212e-011 3.18055e-015 9.05953 -41.6366 16.1528 5.34165 53.7589 -4.02037 -13.4541 -25.9218 2.11603 -5.4219e-008 2.43752e-007 -1.61518e-006 
-0.608504 59.9576 4.03306 4.47194e-008 13.5098 -2.49893e-007 -0.612666 -3.01986 -0.307293 -1.24416 -6.03621 -0.648308 -1.24416 -6.03621 -0.648309 -1.77034e-005 -0.718735 -8.30225e-006 1.96271e-007 -0.663488 1.66339e-007 2.51371 15.0407 -14.3443 37.0567 -5.17848 21.1378 -78.2083 -43.2823 -56.8315 -6.46768 10.893 -2.99925 1.22857e-005 1.31338e-005 1.21704e-005 1.63437e-006 -6.4919e-007 -1.96941e-006 9.54166e-015 0 9.54166e-015 1.22857e-005 1.31338e-005 1.21704e-005 -0.0128128 0.00232308 8.23926e-005 -3.18055e-015 0 -6.36111e-015 1.22857e-005 1.31338e-005 1.21704e-005 -0.0160514 0.0029965 0.000852868 6.36111e-015 0 -0 1.22857e-005 1.31338e-005 1.21704e-005 -0.0125927 0.0031104 0.00281509 -3.18055e-015 4.77083e-015 -3.18055e-015 1.22857e-005 1.31338e-005 1.21704e-005 1.63437e-006 -6.4919e-007 -1.96941e-006 9.54166e-015 0 9.54166e-015 -3.84627 14.4461 8.96389 -36.3339 -7.29673 -16.9217 77.0409 -43.7792 56.25 8.07843 10.7794 3.67881 4.41391e-031 7.95139e-015 -3.18055e-015 3.18055e-015 1.11319e-014 -0 3.53113e-031 6.36111e-015 -3.18055e-015 4.41391e-031 7.95139e-015 -3.18055e-015 0.0129639 0.00229696 -7.95339e-005 3.36773e-006 4.0083e-006 3.46173e-006 4.41391e-031 7.95139e-015 -3.18055e-015 0.0163363 0.00302493 -0.000873979 7.14689e-007 2.2101e-006 2.69074e-006 4.41391e-031 7.95139e-015 -3.18055e-015 0.0145854 0.00366527 -0.00325726 1.08807e-007 2.76053e-006 3.28106e-006 4.41391e-031 7.95139e-015 -3.18055e-015 3.18055e-015 1.11319e-014 -0 3.53113e-031 6.36111e-015 -3.18055e-015 -8.44881 -39.8969 -16.82 -5.61171 53.7252 4.16214 12.6248 -26.2046 -1.42963 5.46416e-008 2.43869e-007 1.61535e-006 9.70954 -39.6976 17.1832 5.13 53.5043 -3.85795 -13.4981 -25.7851 1.0042 1.39149e-015 -2.25094e-007 -3.18055e-015 
-0.608462 60.0049 4.45897 -1.91696e-007 12.0174 -1.77621e-007 -0.616355 -2.46346 -0.298957 -1.24731 -4.92356 -0.625317 -1.24731 -4.92355 -0.625316 -8.98283e-006 -1.0757 -4.246e-006 -1.14529e-006 -0.993256 -2.6174e-007 2.77065 13.8761 -14.6927 37.0567 -5.17844 21.1378 -77.4234 -43.2711 -56.2564 -6.53526 10.5889 -2.6256 0 1.59028e-015 -0 -3.18055e-015 -4.77083e-015 -0 -4.06907e-006 1.95652e-006 1.15421e-006 0 1.59028e-015 -0 -0.0128156 0.00232935 9.13274e-005 -1.09086e-005 -1.78537e-005 -1.00646e-005 0 1.59028e-015 -0 -0.0160816 0.00298318 0.000848524 -4.06848e-006 -1.49734e-006 1.15396e-006 0 1.59028e-015 -0 -0.0125737 0.00312487 0.00282699 -1.02741e-005 -1.06562e-005 -6.73674e-006 0 1.59028e-015 -0 -3.18055e-015 -4.77083e-015 -0 -4.06907e-006 1.95652e-006 1.15421e-006 -4.08156 13.3078 9.29738 -36.3339 -7.29677 -16.9217 76.277 -43.764 55.6872 8.10065 10.4741 3.29524 3.18055e-015 3.18387e-006 6.36111e-015 -9.54166e-015 6.36111e-015 -0 -3.18055e-015 9.54166e-015 -3.18055e-015 3.18055e-015 3.18387e-006 6.36111e-015 0.0128995 0.00229569 -8.50927e-005 1.22474e-005 -8.09281e-006 8.19085e-006 3.18055e-015 3.18387e-006 6.36111e-015 0.0163303 0.0030241 -0.000861628 0 6.36111e-015 -0 3.18055e-015 3.18387e-006 6.36111e-015 0.0145786 0.00367021 -0.00324712 6.93282e-007 1.86633e-006 2.70561e-006 3.18055e-015 3.18387e-006 6.36111e-015 -9.54166e-015 6.36111e-015 -0 -3.18055e-015 9.54166e-015 -3.18055e-015 -8.94762 -37.9749 -17.5882 -5.41666 53.4737 4.01357 12.6732 -26.1288 -0.516099 7.95139e-016 3.97569e-016 -0 10.3007 -37.7395 18.1629 4.91951 53.2481 -3.69768 -13.539 -25.6474 -0.10784 -8.46485e-007 6.64499e-008 -9.32841e-009 
